<svg xmlns="http://www.w3.org/2000/svg" width="40" height="40" fill="none" viewBox="0 0 40 40">
  <path fill="currentColor" d="M40 20a19.94 19.94 0 0 1-5.858 14.142A19.94 19.94 0 0 1 20 40a19.94 19.94 0 0 1-14.142-5.858A19.94 19.94 0 0 1 0 20 19.94 19.94 0 0 1 5.858 5.858 19.94 19.94 0 0 1 20 0a19.94 19.94 0 0 1 14.142 5.858A19.94 19.94 0 0 1 40 20"/>
  <g fill="#f4f4fd" clip-path="url(#a)">
    <path d="M31.977 15.056c-.057-1.275-.263-2.152-.558-2.911a5.86 5.86 0 0 0-1.388-2.129 5.9 5.9 0 0 0-2.124-1.383c-.764-.295-1.636-.502-2.911-.558C23.71 8.015 23.303 8 20.045 8c-3.259 0-3.667.014-4.947.07-1.275.057-2.152.263-2.911.558a5.86 5.86 0 0 0-2.129 1.388 5.9 5.9 0 0 0-1.383 2.124c-.295.764-.502 1.636-.558 2.911-.06 1.285-.075 1.693-.075 4.951 0 3.259.014 3.667.07 4.947.057 1.275.263 2.151.559 2.911a5.9 5.9 0 0 0 1.387 2.129c.6.61 1.327 1.083 2.124 1.383.764.295 1.636.501 2.912.558 1.28.056 1.688.07 4.946.07s3.666-.014 4.946-.07c1.275-.057 2.152-.263 2.912-.558a6.14 6.14 0 0 0 3.511-3.512c.296-.764.502-1.636.558-2.911.056-1.28.07-1.688.07-4.947 0-3.258-.004-3.666-.06-4.946m-2.162 9.799c-.051 1.172-.248 1.805-.412 2.227a3.98 3.98 0 0 1-2.279 2.278c-.422.165-1.06.361-2.227.413-1.266.056-1.645.07-4.848.07s-3.586-.014-4.848-.07c-1.172-.052-1.805-.248-2.227-.413a3.7 3.7 0 0 1-1.378-.895 3.7 3.7 0 0 1-.896-1.378c-.164-.422-.36-1.06-.412-2.227-.056-1.266-.07-1.646-.07-4.848s.014-3.587.07-4.848c.051-1.172.248-1.805.412-2.227.193-.52.498-.994.9-1.379a3.7 3.7 0 0 1 1.38-.895c.421-.164 1.059-.36 2.226-.413 1.266-.056 1.646-.07 4.848-.07 3.207 0 3.587.014 4.848.07 1.172.052 1.805.249 2.227.413.52.192.994.497 1.378.895.399.39.703.858.896 1.379.164.422.36 1.06.412 2.227.056 1.266.07 1.646.07 4.848s-.014 3.577-.07 4.843"/><path d="M20.045 13.837a6.167 6.167 0 0 0-6.166 6.165 6.167 6.167 0 0 0 6.166 6.165 6.167 6.167 0 0 0 6.165-6.165 6.167 6.167 0 0 0-6.166-6.165m0 10.164a4 4 0 1 1 0-8 4 4 0 0 1 0 8M27.893 13.593a1.44 1.44 0 1 1-2.879 0 1.44 1.44 0 0 1 2.879 0"/>
  </g>
  <defs>
    <clipPath id="a"><path fill="#fff" d="M8 8h24v24H8z"/></clipPath>
  </defs>
</svg>