<svg xmlns="http://www.w3.org/2000/svg" width="40" height="40" fill="none" viewBox="0 0 40 40"><path fill="currentColor" d="M40 20a19.94 19.94 0 0 1-5.858 14.142A19.94 19.94 0 0 1 20 40a19.94 19.94 0 0 1-14.142-5.858A19.94 19.94 0 0 1 0 20 19.94 19.94 0 0 1 5.858 5.858 19.94 19.94 0 0 1 20 0a19.94 19.94 0 0 1 14.142 5.858A19.94 19.94 0 0 1 40 20"/><path fill="#f4f4fd" d="M23.997 11.985h2.191V8.169C25.81 8.117 24.51 8 22.996 8c-3.159 0-5.323 1.987-5.323 5.639V17h-3.486v4.266h3.486V32h4.274V21.267h3.345l.531-4.266h-3.877v-2.939c.001-1.233.333-2.077 2.051-2.077"/></svg>