<svg xmlns="http://www.w3.org/2000/svg" width="40" height="40" fill="none" viewBox="0 0 40 40">
  <path fill="currentColor" d="M40 20a19.94 19.94 0 0 1-5.858 14.142A19.94 19.94 0 0 1 20 40a19.94 19.94 0 0 1-14.142-5.858A19.94 19.94 0 0 1 0 20 19.94 19.94 0 0 1 5.858 5.858 19.94 19.94 0 0 1 20 0a19.94 19.94 0 0 1 14.142 5.858A19.94 19.94 0 0 1 40 20"/>
  <path fill="#f4f4fd" d="M32 12.559c-.892.391-1.843.65-2.835.777a4.9 4.9 0 0 0 2.165-2.72 9.8 9.8 0 0 1-3.12 1.191 4.919 4.919 0 0 0-8.511 3.364c0 .39.033.766.114 1.123-4.091-.2-7.71-2.16-10.142-5.147a4.95 4.95 0 0 0-.673 2.487c0 1.704.877 3.215 2.185 4.089a4.86 4.86 0 0 1-2.223-.606v.054a4.94 4.94 0 0 0 3.942 4.835c-.4.109-.837.162-1.29.162a4.4 4.4 0 0 1-.931-.084c.637 1.948 2.446 3.38 4.597 3.427a9.9 9.9 0 0 1-6.1 2.099c-.404 0-.791-.018-1.178-.068a13.85 13.85 0 0 0 7.548 2.208c9.054 0 14.004-7.5 14.004-14.001q-.001-.325-.018-.636A9.8 9.8 0 0 0 32 12.559"/>
</svg>